<svg xmlns="http://www.w3.org/2000/svg" viewBox="0 0 32 32" width="32" height="32">
  <defs>
    <linearGradient id="buildingGradient" x1="0%" y1="0%" x2="100%" y2="100%">
      <stop offset="0%" style="stop-color:#ffffff;stop-opacity:1" />
      <stop offset="100%" style="stop-color:#f8f9fa;stop-opacity:1" />
    </linearGradient>
  </defs>
  
  <!-- Fundo do prédio -->
  <rect x="6" y="8" width="20" height="22" fill="url(#buildingGradient)" rx="2" stroke="#e9ecef" stroke-width="0.5"/>
  
  <!-- Janelas do prédio -->
  <rect x="9" y="12" width="3" height="2" fill="#495057" opacity="0.7" rx="0.5"/>
  <rect x="14" y="12" width="3" height="2" fill="#495057" opacity="0.7" rx="0.5"/>
  <rect x="19" y="12" width="3" height="2" fill="#495057" opacity="0.7" rx="0.5"/>
  
  <rect x="9" y="16" width="3" height="2" fill="#495057" opacity="0.7" rx="0.5"/>
  <rect x="14" y="16" width="3" height="2" fill="#495057" opacity="0.7" rx="0.5"/>
  <rect x="19" y="16" width="3" height="2" fill="#495057" opacity="0.7" rx="0.5"/>
  
  <rect x="9" y="20" width="3" height="2" fill="#495057" opacity="0.7" rx="0.5"/>
  <rect x="14" y="20" width="3" height="2" fill="#495057" opacity="0.7" rx="0.5"/>
  <rect x="19" y="20" width="3" height="2" fill="#495057" opacity="0.7" rx="0.5"/>
  
  <!-- Porta -->
  <rect x="13.5" y="25" width="5" height="5" fill="#495057" opacity="0.7" rx="0.5"/>
  
  <!-- Telhado -->
  <polygon points="4,8 16,2 28,8" fill="#6c757d" stroke="#495057" stroke-width="0.5"/>
  
  <!-- Antena/chaminé -->
  <rect x="20" y="4" width="1" height="4" fill="#6c757d"/>
  <circle cx="20.5" cy="3" r="0.5" fill="#ff6b35"/>
</svg>
